<?xml version="1.0" standalone="no"?>
<!DOCTYPE svg PUBLIC "-//W3C//DTD SVG 20010904//EN"
 "http://www.w3.org/TR/2001/REC-SVG-20010904/DTD/svg10.dtd">
<svg version="1.0" xmlns="http://www.w3.org/2000/svg"
 width="960.000000pt" height="960.000000pt" viewBox="0 0 960.000000 960.000000"
 preserveAspectRatio="xMidYMid meet">

<g transform="translate(0.000000,960.000000) scale(0.100000,-0.100000)"
fill="#000000" stroke="none">
<path d="M4273 5680 c-63 -15 -142 -61 -196 -117 -123 -123 -218 -390 -258
-728 -7 -55 -16 -104 -20 -109 -6 -6 -24 -1 -47 12 -46 26 -151 52 -209 52
l-43 0 20 51 c33 82 39 126 29 192 -18 113 -86 210 -200 288 -74 50 -137 74
-241 93 -78 15 -238 19 -238 7 0 -7 -28 -19 -100 -47 -61 -23 -160 -94 -205
-146 -51 -60 -110 -187 -136 -293 -32 -132 -32 -397 0 -545 51 -241 169 -516
286 -672 108 -143 214 -219 375 -270 64 -20 96 -23 221 -23 116 0 152 3 180
17 19 9 64 30 101 47 37 16 89 44 115 62 74 49 187 171 217 235 29 61 23 59
106 29 60 -23 152 -14 231 21 42 19 78 47 127 98 94 99 127 170 203 434 20 67
23 73 44 68 32 -8 204 -9 246 -1 l36 7 21 -59 c12 -32 33 -94 48 -138 72 -216
218 -411 353 -473 72 -33 165 -40 215 -17 l38 18 38 -45 c54 -63 142 -102 219
-96 97 7 175 62 222 156 23 46 37 51 75 25 14 -9 48 -17 76 -18 l51 -2 22 -77
c32 -110 99 -176 215 -210 247 -74 537 98 616 365 66 220 89 481 60 677 -34
229 -168 537 -278 638 -188 173 -359 207 -610 120 -92 -32 -217 -118 -312
-214 -91 -92 -127 -144 -187 -263 l-43 -84 -7 35 c-5 19 -13 71 -19 115 -29
208 -96 441 -157 544 -85 144 -221 236 -365 248 -74 6 -81 4 -144 -27 -75 -37
-161 -117 -217 -202 -37 -56 -69 -77 -101 -65 -7 3 -35 38 -62 77 -95 141
-210 221 -318 219 -34 -1 -75 -4 -93 -9z m209 -83 c71 -42 111 -89 176 -210
34 -63 69 -118 78 -121 56 -22 80 0 158 144 77 143 180 220 291 220 146 0 275
-93 352 -252 66 -137 122 -347 153 -579 23 -173 33 -201 69 -197 23 3 30 15
61 99 72 197 162 323 320 451 141 114 280 159 432 140 101 -12 173 -46 256
-118 62 -55 98 -105 153 -215 107 -214 143 -366 144 -604 1 -425 -84 -648
-285 -754 -144 -75 -313 -65 -422 27 -40 34 -60 82 -67 162 l-6 65 -40 3 c-54
3 -170 29 -213 47 -52 22 -60 19 -67 -27 -16 -98 -79 -164 -172 -181 -53 -10
-138 28 -181 81 -50 61 -70 82 -81 82 -4 0 -25 -12 -47 -26 -32 -22 -46 -26
-94 -22 -111 8 -218 82 -297 205 -45 71 -65 117 -134 317 -33 93 -60 170 -61
172 -2 1 -28 -4 -58 -12 -40 -11 -95 -14 -200 -12 l-144 3 -28 -115 c-62 -256
-97 -332 -194 -418 -98 -88 -249 -109 -341 -48 -53 35 -74 31 -93 -19 -55
-147 -208 -295 -363 -353 -148 -56 -366 -70 -460 -30 -192 80 -332 229 -451
478 -104 220 -154 416 -163 645 -7 169 6 275 48 398 49 142 97 204 212 274 74
45 130 62 232 69 215 17 425 -94 504 -266 29 -63 33 -79 29 -138 -4 -69 -40
-159 -80 -202 -22 -24 -17 -55 8 -46 38 15 154 18 205 6 63 -15 93 -29 133
-64 57 -51 89 -24 100 84 10 99 63 353 97 465 82 269 195 401 364 424 66 9
113 0 167 -32z"/>
<path d="M3834 4596 c-3 -8 3 -27 15 -42 17 -21 42 -90 67 -182 5 -19 38 -11
42 10 5 26 -35 151 -61 189 -25 37 -54 49 -63 25z"/>
<path d="M5697 4419 c-23 -36 -44 -186 -28 -202 21 -20 37 15 51 113 9 64 10
94 2 102 -7 7 -15 3 -25 -13z"/>
<path d="M5650 4175 c-11 -13 -11 -19 3 -33 20 -19 41 -5 35 24 -4 24 -22 28
-38 9z"/>
<path d="M6592 5510 c0 -14 2 -19 5 -12 2 6 2 18 0 25 -3 6 -5 1 -5 -13z"/>
<path d="M2208 5383 c6 -2 18 -2 25 0 6 3 1 5 -13 5 -14 0 -19 -2 -12 -5z"/>
</g>
</svg>
